<svg id="Layer_1" data-name="Layer 1" xmlns="http://www.w3.org/2000/svg" viewBox="0 0 15 15"><path d="M12,10.57s0,0,0-.07v-5a.19.19,0,0,0,0-.07.29.29,0,0,0,0-.09,0,0,0,0,0,0,0h0l0,0-.05-.07a0,0,0,0,0,0,0l-.07,0,0,0-4-2h0l-.1,0H7.41l-.1,0h0l-4,2,0,0-.07,0a0,0,0,0,0,0,0l-.05.07,0,0h0a0,0,0,0,0,0,0,.29.29,0,0,0,0,.09.19.19,0,0,0,0,.08H3v5s0,.05,0,.07a.45.45,0,0,0,0,.11s0,.05,0,.08l0,.08.09.06s0,0,.06,0l4,2h0A.46.46,0,0,0,7.5,13h0A.46.46,0,0,0,7.71,13h0l4-2s0,0,.06,0l.09-.06.05-.08a.79.79,0,0,0,0-.09A.29.29,0,0,0,12,10.57ZM7.5,4.06,10.38,5.5l-.88.44L7.72,5.05h0l-.1,0H7.41l-.1,0h0L5.5,5.94,4.62,5.5ZM9,9.19l-1,.5V7.81l1-.5ZM7.5,6.06l.88.44-.88.44L6.62,6.5ZM6,7.31l1,.5V9.69l-1-.5Zm-2-1,1,.5V9.5s0,.05,0,.07a.45.45,0,0,0,0,.11s0,.05,0,.08l0,.08.09.06s0,0,.06,0L7,10.81v.88l-3-1.5Zm4,4.5L9.72,10s0,0,.06,0l.09-.06.05-.08a.79.79,0,0,0,0-.09.29.29,0,0,0,0-.1s0,0,0-.07V6.81l1-.5v3.88l-3,1.5Z"/></svg>